<?xml version="1.0" standalone="no"?>
<!DOCTYPE svg PUBLIC "-//W3C//DTD SVG 20010904//EN"
 "http://www.w3.org/TR/2001/REC-SVG-20010904/DTD/svg10.dtd">
<svg version="1.0" xmlns="http://www.w3.org/2000/svg"
 width="512.000000pt" height="512.000000pt" viewBox="0 0 512.000000 512.000000"
 preserveAspectRatio="xMidYMid meet">
<metadata>
Created by potrace 1.14, written by Peter Selinger 2001-2017
</metadata>
<g transform="translate(0.000000,512.000000) scale(0.100000,-0.100000)"
fill="#000000" stroke="none">
<path d="M1315 4778 c-189 -20 -421 -97 -582 -192 -120 -72 -208 -141 -308
-242 -207 -209 -342 -463 -401 -759 -31 -157 -29 -406 5 -572 47 -227 145
-438 286 -617 35 -45 492 -509 1017 -1032 855 -854 959 -954 1013 -979 158
-74 336 -64 474 25 25 16 478 462 1006 992 700 701 976 985 1017 1043 123 175
215 393 254 600 28 149 26 415 -4 552 -105 476 -390 842 -816 1044 -537 255
-1160 167 -1610 -226 -54 -48 -94 -75 -108 -75 -14 1 -49 25 -88 61 -185 171
-424 293 -695 354 -10 3 -37 7 -60 10 -22 3 -52 8 -66 11 -47 9 -253 10 -334
2z"/>
</g>
</svg>
